<svg xmlns="http://www.w3.org/2000/svg" width="29.562" height="29.562" viewBox="0 0 29.562 29.562"><path d="M26.395,2.25H3.167A3.168,3.168,0,0,0,0,5.417V28.645a3.168,3.168,0,0,0,3.167,3.167H26.395a3.168,3.168,0,0,0,3.167-3.167V5.417A3.168,3.168,0,0,0,26.395,2.25ZM10.558,24.421A1.055,1.055,0,0,1,9.5,25.477H7.39a1.055,1.055,0,0,1-1.056-1.056V15.975A1.055,1.055,0,0,1,7.39,14.919H9.5a1.055,1.055,0,0,1,1.056,1.056Zm6.335,0a1.055,1.055,0,0,1-1.056,1.056H13.725a1.055,1.055,0,0,1-1.056-1.056V9.64a1.055,1.055,0,0,1,1.056-1.056h2.112A1.055,1.055,0,0,1,16.893,9.64Zm6.335,0a1.055,1.055,0,0,1-1.056,1.056H20.06A1.055,1.055,0,0,1,19,24.421V20.2a1.055,1.055,0,0,1,1.056-1.056h2.112A1.055,1.055,0,0,1,23.227,20.2Z" transform="translate(0 -2.25)" fill="#0c446c"/></svg>