<svg xmlns="http://www.w3.org/2000/svg" width="18.372" height="17" viewBox="0 0 18.372 17"><g transform="translate(-3.41 -4.5)"><path d="M8.561,14.26,11.3,11.593,4.527,5.042a3.689,3.689,0,0,0,0,5.288Z" transform="translate(0 -0.201)" fill="#3c4249"/><path d="M15.637,12.375a4.712,4.712,0,0,0,5.043-1.31c1.825-1.778,2.21-4.352.769-5.709-1.393-1.4-4.034-1.029-5.859.749a4.468,4.468,0,0,0-1.345,4.913c-2.113,2.106-9.366,9.172-9.366,9.172L6.223,21.5l6.628-6.458L19.479,21.5l1.345-1.31L14.2,13.732Z" transform="translate(-0.544)" fill="#3c4249"/></g></svg>