<svg xmlns="http://www.w3.org/2000/svg" width="17" height="17" viewBox="0 0 17 17"><g transform="translate(-94.97 -1889)"><path d="M7.429,4.341,5.134.516A1.062,1.062,0,0,0,4.223,0H.532A.531.531,0,0,0,.1.836L3.791,6.114A6.872,6.872,0,0,1,7.429,4.341ZM16.468,0H12.777a1.062,1.062,0,0,0-.911.516l-2.3,3.825a6.874,6.874,0,0,1,3.638,1.772L16.9.836A.531.531,0,0,0,16.468,0ZM8.5,5.312a5.844,5.844,0,1,0,5.844,5.844A5.844,5.844,0,0,0,8.5,5.312Zm3.072,5.222-1.259,1.227.3,1.734a.381.381,0,0,1-.553.4L8.5,13.078,6.943,13.9a.381.381,0,0,1-.553-.4l.3-1.734L5.428,10.534a.381.381,0,0,1,.211-.65L7.38,9.63l.778-1.578a.382.382,0,0,1,.684,0L9.62,9.63l1.741.254a.381.381,0,0,1,.211.65Z" transform="translate(94.97 1889)" fill="#3c4249"/></g></svg>