<svg xmlns="http://www.w3.org/2000/svg" width="25.253" height="19.863" viewBox="0 0 25.253 19.863"><path d="M22.232,2.25H2.021A2.022,2.022,0,0,0,0,4.271V19.092a2.022,2.022,0,0,0,2.021,2.021H22.232a2.022,2.022,0,0,0,2.021-2.021V4.271A2.022,2.022,0,0,0,22.232,2.25ZM7.411,6.292A2.695,2.695,0,1,1,4.716,8.987,2.7,2.7,0,0,1,7.411,6.292Zm4.716,9.971a.883.883,0,0,1-.943.808H3.638a.883.883,0,0,1-.943-.808v-.808a2.652,2.652,0,0,1,2.829-2.425h.211a4.337,4.337,0,0,0,3.352,0H9.3a2.652,2.652,0,0,1,2.829,2.425Zm9.432-2.223a.338.338,0,0,1-.337.337H15.158a.338.338,0,0,1-.337-.337v-.674a.338.338,0,0,1,.337-.337h6.063a.338.338,0,0,1,.337.337Zm0-2.695a.338.338,0,0,1-.337.337H15.158a.338.338,0,0,1-.337-.337v-.674a.338.338,0,0,1,.337-.337h6.063a.338.338,0,0,1,.337.337Zm0-2.695a.338.338,0,0,1-.337.337H15.158a.338.338,0,0,1-.337-.337V7.976a.338.338,0,0,1,.337-.337h6.063a.338.338,0,0,1,.337.337Z" transform="translate(0.5 -1.75)" fill="none" stroke="#3c4249" stroke-width="1"/></svg>